<svg width="40" height="40" viewBox="0 0 40 40" fill="none" xmlns="http://www.w3.org/2000/svg">
<path d="M20.4108 31.6538C21.3285 32.0856 22.2904 32.7218 23.1613 33.3795C22.8311 33.9623 22.21 34.3549 21.4983 34.3549H19.5828C18.8186 34.3549 18.1589 33.9023 17.8516 33.2476C18.669 32.6401 19.5581 32.0601 20.4108 31.6538Z" fill="black"/>
<path d="M20.646 22.8413C20.7861 22.9078 20.9304 22.9749 21.0795 23.0422C22.1925 23.5452 22.8614 23.9068 23.2419 24.1339C23.3079 24.1733 23.3647 24.2086 23.4137 24.2396V26.5642L23.1969 26.7611C23.1902 26.7665 23.1735 26.7795 23.1448 26.8001C23.0829 26.8445 22.9671 26.9232 22.7773 27.0365C22.3967 27.2636 21.7278 27.6252 20.6148 28.1282C20.5456 28.1595 20.4773 28.1906 20.41 28.2216C20.3564 28.197 20.3022 28.1722 20.2474 28.1475C19.1344 27.6445 18.4655 27.2829 18.0849 27.0558C17.8951 26.9425 17.7793 26.8638 17.7174 26.8194C17.6909 26.8004 17.6747 26.7879 17.667 26.7818V24.3816C17.6718 24.3782 17.6768 24.3742 17.6825 24.3702C17.7444 24.3258 17.8602 24.2472 18.05 24.1339C18.4305 23.9068 19.0995 23.5452 20.2125 23.0422C20.3616 22.9749 20.5058 22.9078 20.646 22.8413Z" fill="black"/>
<path d="M23.4137 17.5894C22.5531 18.2587 21.5836 18.9265 20.646 19.403C19.6338 18.8887 18.5843 18.1515 17.675 17.43C17.6723 17.4279 17.6697 17.4257 17.667 17.4236V14.5706C18.8062 13.9756 19.9405 13.4848 21.0292 13.1568C21.8213 12.9181 22.6219 12.7237 23.4137 12.5659V17.5894Z" fill="black"/>
<path d="M21.498 6.97314C21.8198 6.97314 22.1231 7.05345 22.3893 7.19526C21.5389 7.46165 20.7255 7.76053 19.9824 8.09635C16.7464 9.55876 14.5132 10.8766 12.2858 12.7854H9.11085C8.05293 12.7854 7.19531 11.918 7.19531 10.848V8.91054C7.19531 7.84054 8.05293 6.97314 9.11085 6.97314H21.498Z" fill="black"/>
<path d="M33.8383 8.89274C33.3076 10.2145 31.982 11.0316 30.5716 11.0216C28.2084 11.005 24.4169 11.1926 20.7742 12.2902C13.6525 14.4361 5 23.0536 5 23.0536C5 23.0536 7.60224 18.8109 9.75509 16.5014C13.2312 12.7725 15.721 11.0125 20.3474 8.92173C25.6723 6.51529 35 6 35 6L33.8383 8.89274Z" fill="black"/>
<path d="M23.7802 27.4463C24.6855 27.6592 24.8566 28.8276 24.0198 29.2367C23.1688 29.6528 22.1611 30.0891 21.1613 30.3903C18.1239 31.3055 14.4336 34.9809 14.4336 34.9809C14.4336 34.9809 15.5434 33.1714 16.4616 32.1864C17.9442 30.596 19.0061 29.8453 20.9793 28.9536C23.2504 27.9273 23.7802 27.4463 23.7802 27.4463Z" fill="black"/>
<path d="M17.0819 27.4653C16.1766 27.6782 16.0055 28.8466 16.8423 29.2557C17.6933 29.6718 18.701 30.1081 19.7008 30.4093C22.7382 31.3245 26.4285 34.9999 26.4285 34.9999C26.4285 34.9999 25.3187 33.1904 24.4005 32.2054C22.9179 30.615 21.856 29.8643 19.8828 28.9726C17.6117 27.9463 17.0819 27.4653 17.0819 27.4653Z" fill="black"/>
<path d="M24.245 23.7241C25.1503 23.5112 25.3214 22.3428 24.4846 21.9337C23.6336 21.5176 22.6258 21.0814 21.6261 20.7801C18.5887 19.8649 14.8984 16.1895 14.8984 16.1895C14.8984 16.1895 16.0082 17.999 16.9264 18.984C18.409 20.5744 19.4709 21.3251 21.4441 22.2168C23.7152 23.2431 24.245 23.7241 24.245 23.7241Z" fill="black"/>
<path d="M17.0468 23.7241C16.1415 23.5112 15.9704 22.3428 16.8072 21.9337C17.6582 21.5176 18.6659 21.0814 19.6657 20.7801C22.7031 19.8649 26.3934 16.1895 26.3934 16.1895C26.3934 16.1895 25.2835 17.999 24.3653 18.984C22.8828 20.5744 21.8208 21.3251 19.8477 22.2168C17.5766 23.2431 17.0468 23.7241 17.0468 23.7241Z" fill="black"/>
</svg>
